<svg width="28" height="31" viewBox="0 0 28 31" fill="none" xmlns="http://www.w3.org/2000/svg">
<path d="M10.5 1.5H4.5C4.10218 1.5 3.72064 1.65804 3.43934 1.93934C3.15804 2.22064 3 2.60218 3 3V15C3 15.3978 3.15804 15.7794 3.43934 16.0607C3.72064 16.342 4.10218 16.5 4.5 16.5H13.5C13.8978 16.5 14.2794 16.342 14.5607 16.0607C14.842 15.7794 15 15.3978 15 15V6L10.5 1.5Z" stroke="#C93E33" stroke-width="1.5" stroke-linecap="round" stroke-linejoin="round"/>
<path d="M10.5 1.5V6H15" stroke="#C93E33" stroke-width="1.5" stroke-linecap="round" stroke-linejoin="round"/>
<path d="M12 9.75H6" stroke="#C93E33" stroke-width="1.5" stroke-linecap="round" stroke-linejoin="round"/>
<path d="M12 12.75H6" stroke="#C93E33" stroke-width="1.5" stroke-linecap="round" stroke-linejoin="round"/>
<path d="M7.5 6.75H6.75H6" stroke="#C93E33" stroke-width="1.5" stroke-linecap="round" stroke-linejoin="round"/>
<g filter="url(#filter0_d_176_2)">
<circle cx="18.5" cy="19.5" r="7.5" fill="white"/>
</g>
<path d="M21.125 20.375V21.5417C21.125 21.6964 21.0635 21.8447 20.9541 21.9541C20.8447 22.0635 20.6964 22.125 20.5417 22.125H16.4583C16.3036 22.125 16.1553 22.0635 16.0459 21.9541C15.9365 21.8447 15.875 21.6964 15.875 21.5417V20.375" stroke="#C93E33" stroke-width="0.8" stroke-linecap="round" stroke-linejoin="round"/>
<path d="M17.0415 18.9167L18.4998 20.375L19.9582 18.9167" stroke="#C93E33" stroke-width="0.8" stroke-linecap="round" stroke-linejoin="round"/>
<path d="M18.5 20.375V16.875" stroke="#C93E33" stroke-width="0.8" stroke-linecap="round" stroke-linejoin="round"/>
<defs>
<filter id="filter0_d_176_2" x="9" y="12" width="19" height="19" filterUnits="userSpaceOnUse" color-interpolation-filters="sRGB">
<feFlood flood-opacity="0" result="BackgroundImageFix"/>
<feColorMatrix in="SourceAlpha" type="matrix" values="0 0 0 0 0 0 0 0 0 0 0 0 0 0 0 0 0 0 127 0" result="hardAlpha"/>
<feOffset dy="2"/>
<feGaussianBlur stdDeviation="1"/>
<feColorMatrix type="matrix" values="0 0 0 0 0 0 0 0 0 0 0 0 0 0 0 0 0 0 0.05 0"/>
<feBlend mode="normal" in2="BackgroundImageFix" result="effect1_dropShadow_176_2"/>
<feBlend mode="normal" in="SourceGraphic" in2="effect1_dropShadow_176_2" result="shape"/>
</filter>
</defs>
</svg>
